<svg xmlns="http://www.w3.org/2000/svg" viewBox="0 0 805 807" xml:space="preserve">
  <path fill="#121212" d="M657.619 110.38c66.174 57.45 109.573 128.468 127.17 213.933 24.726 120.091-1.183 229.325-77.364 325.337-58.128 73.262-134.259 119.422-226.118 137.165-120.394 23.255-229.273-4.241-324.26-81.676-72.19-58.849-117.75-135.165-133.83-226.94-24.466-139.637 15.512-259.667 117.848-357.616 56.818-54.382 125.55-87.07 203.432-98.62C461.73 4.58 566.05 34.69 657.619 110.38M505.702 617.93c-.461-.145-.923-.291-1.968.024l.466 1.203c.314-.337.629-.675 1.502-1.227M284.148 509.632c-4.571 1.513-9.28 2.716-13.66 4.658-2.586 1.145-4.857 3.26-6.89 5.315-1.659 1.677-2.756 3.911-3.273 4.676.416 2.653.892 4.286.896 5.92.051 19.666-.002 39.332.047 58.998.026 10.498 4.49 14.968 14.727 14.968 64.331.002 128.662.035 192.993-.047 7.143-.009 14.345-.205 21.419-1.108 46.796-5.97 78.52-31.552 96.81-74.66 11.977-28.232 13.94-58.19 14.545-88.125.841-41.648.37-83.326.144-124.99-.12-22.187-1.975-44.235-7.924-65.763-7.063-25.555-18.741-48.378-39.43-65.673-22.947-19.182-50.106-27.57-79.43-27.851-66.658-.64-133.324-.367-199.987-.456-8.455-.011-13.737 4.822-13.813 13.444-.19 21.664-.15 43.331-.01 64.996.046 7.06 3.994 11.936 10.698 13.998 3.493 1.075 7.013 2.182 10.604 2.772 3.104.51 4.006 1.838 4.003 4.943-.08 83.163-.057 166.327-.135 249.49-.002 1.376-1.047 2.75-2.334 4.495M254.402 646.9l41.464-30.971c-6.749-1.13-11.518-.214-16.277 3.581-12.618 10.064-25.69 19.557-38.572 29.291-1.243.94-2.41 1.98-3.87 3.185 6.974 2.026 12.104-.364 17.255-5.086m136.848-18.12L360.5 651.65l.82 1.795c4.016-.982 8.786-.903 11.92-3.128 14.488-10.292 28.513-21.238 42.74-31.9.967-.724 2.24-1.037 3.371-1.54-7.35-2.591-12.279-.652-16.801 3.35-3.349 2.962-7.144 5.418-11.3 8.55m-102.325 10.625 31.551-23.535c-6.336-1.01-10.832-.222-15.303 3.292-11.888 9.342-24.169 18.182-36.294 27.22-2.32 1.73-4.644 3.457-7.681 5.717 6.066.932 10.63.8 14.82-2.97 3.811-3.43 8.213-6.204 12.907-9.724m76.386-9.556-29.88 22.22c9.386 1.015 9.383 1.01 15.26-3.37 10.668-7.95 21.343-15.893 32.01-23.845 3.765-2.806 7.518-5.63 11.964-8.96-6.086-.931-10.651-.735-14.866 2.981-4.352 3.838-9.26 7.043-14.488 10.974m-26.636-14.413c-2.272.763-4.921 1.016-6.756 2.372-14.153 10.457-28.153 21.123-42.184 31.744-.922.699-1.715 1.57-2.81 2.585 6.117 1.218 10.659-.085 15.225-3.704 12.876-10.207 26.164-19.895 39.275-29.808.954-.721 1.785-1.605 3.524-3.19h-6.274m-18.152 37.045 49.11-36.481c-6.785-1.353-11.338-.035-15.904 3.581-12.78 10.122-25.967 19.732-38.978 29.564-1.102.833-2.093 1.812-3.92 3.408 3.69 0 6.294 0 9.692-.072m91.705-12.766 31.148-23.569c-7.937-1.46-8.985-1.246-14.317 2.77-7.562 5.696-15.117 11.402-22.674 17.105-6.854 5.174-13.706 10.35-21.699 16.387 6.083.145 10.582.924 14.699-2.906 3.75-3.49 8.144-6.286 12.843-9.787m-175.83 2.182 34.397-26.025c-5.74-.704-10.096-.952-14.305 2.628-6.063 5.159-12.665 9.684-19.031 14.486-8.142 6.142-16.278 12.29-25.047 18.912 5.616 1.083 9.962 1.309 13.9-2.342 2.908-2.698 6.31-4.865 10.086-7.659m-9.517-343.273 47.225-35.166c-4.36-2.767-7.868-2.668-11.85.598-6.79 5.568-14.067 10.545-21.136 15.775-7.436 5.5-14.868 11.006-22.844 16.91 3.112.823 5.497 1.453 8.605 1.883m221.603 342.38c-3.875 2.881-7.75 5.763-12.405 9.227 10.018-.058 11.656-.566 18.131-5.452a31018.071 31018.071 0 0 0 40.606-30.696c1.104-.835 2.13-1.775 3.708-3.1-10.917 1.313-10.92 1.307-18.495 6.866-10.324 7.576-20.64 15.162-31.545 23.154m-210.24-406.267c2.78-2.107 5.381-4.524 8.38-6.249 4.354-2.503 4.97-5.953 3.748-10.748-1.625 1.11-2.981 1.974-4.273 2.926-12.297 9.067-24.395 18.423-36.97 27.086-4.706 3.241-4.457 6.783-3.735 11.733a12237.72 12237.72 0 0 1 32.85-24.748m198.16 405.163 32.354-24.675c-8.075-.783-8.284-.729-13.391 3.037-6.287 4.635-12.583 9.256-18.858 13.906-8.733 6.471-17.452 12.964-26.817 19.922 6.167 1.034 10.868.72 15.081-3.26 3.365-3.178 7.336-5.714 11.63-8.93M245.68 608.234c-12.344 9.25-24.582 18.644-37.095 27.66-3.784 2.726-4.41 5.338-1.787 9.529 15.53-11.555 31.026-23.082 46.527-34.614-1.18-2.12-2.116-3.798-3.2-5.742-1.49 1.078-2.674 1.933-4.445 3.167m10.333-350.154-3.141-5.228-43.478 31.921c-4.659 3.42-4.655 4.041.212 7.99 15.286-11.335 30.616-22.702 46.407-34.683m-48.82 17.868c12.954-9.574 25.903-19.154 38.865-28.717 5.363-3.957 5.375-3.941 4.142-11.317l-24.068 17.87c-6.4 4.753-12.83 9.463-19.185 14.276-2.685 2.034-2.83 6.684.245 7.888m65.364 153.949c4.346-2.224 3.567-5.983 3.153-10.373-1.348.974-2.259 1.608-3.145 2.276-12.349 9.307-24.53 18.851-37.13 27.804-4.41 3.132-5.34 6.486-4.03 11.733a24768.689 24768.689 0 0 1 41.152-31.44m-38.859-44.508c12.764-9.563 25.357-19.367 38.385-28.555 4.494-3.17 4.22-6.55 3.434-11.285-14.63 11.099-28.892 21.679-42.76 32.75-1.664 1.327-1.2 5.32-1.72 8.077.688-.172 1.377-.343 2.661-.987m42.087 53.558c-1.528.848-3.175 1.537-4.566 2.57-11.864 8.809-23.547 17.87-35.585 26.432-4.398 3.128-5.769 6.525-4.086 11.788 13.33-10.21 26.376-20.432 39.711-30.262 3.613-2.664 5.47-5.431 4.526-10.528m-5.357-71.001c-11.722 8.98-23.304 18.153-35.246 26.83-3.952 2.872-5.19 5.817-3.732 10.682 1.037-.722 1.826-1.237 2.579-1.8 12.35-9.245 24.533-18.726 37.13-27.621 4.492-3.173 5.738-6.57 4.335-11.912a576.086 576.086 0 0 0-5.066 3.821m-65.056 215.543-.397 8.301c14.398-10.693 27.74-20.851 41.387-30.581 3.928-2.8 5.407-5.697 3.888-10.856a44430.507 44430.507 0 0 0-44.878 33.136m32.133 12.537c-9.466 7.055-18.758 14.364-28.482 21.043-4.034 2.771-4.597 5.832-3.621 10.455 1.717-1.178 3.198-2.132 4.613-3.175 12.045-8.881 23.968-17.935 36.179-26.582 4.028-2.852 5.803-5.84 4.023-11.064-4.185 3.07-8.158 5.987-12.712 9.323m-15.29-376.295c-4.404 3.267-8.582 6.912-13.273 9.695-4.744 2.814-4.386 6.46-3.503 10.937 19.898-12.866 44.563-32.542 45.198-36.023-4.284-.996-7.94-.233-11.491 2.715-5.235 4.344-10.896 8.173-16.932 12.676m15.972 217.94c11.097-8.503 22.004-17.27 33.386-25.372 4.27-3.039 5.01-6.274 4-11.304-13.653 10.459-26.956 20.658-40.268 30.845-5.145 3.937-5.155 3.925-3.665 10.784 2.043-1.558 4.004-3.053 6.547-4.954m20.056-41.906c-7.776 5.958-15.372 12.176-23.405 17.765-4.145 2.884-4.647 6.08-3.339 10.732 13.582-10.381 26.754-20.713 40.252-30.601 3.984-2.919 5.027-6.041 3.726-11.025-5.704 4.332-11.192 8.501-17.234 13.13m2.256 72.252c-8.228 6.173-16.28 12.603-24.759 18.409-4.272 2.925-5.868 6.112-4.3 11.385 13.457-10.06 26.575-20.15 40.036-29.76 4.138-2.954 5.394-6.1 3.983-11.203-4.908 3.668-9.646 7.208-14.96 11.17m4.18-160.858c2.128-1.588 4.118-3.424 6.416-4.71 4.503-2.519 5.983-6.032 4.319-11.328-13.417 10.036-26.525 20.159-40.015 29.743-4.208 2.99-5.323 6.154-3.99 11.221 11.017-8.243 21.864-16.36 33.27-24.926m-4.135 205.873c3.59-2.68 6.99-5.675 10.817-7.955 4.378-2.608 5.558-6.048 4.197-11.086-1.414.98-2.753 1.845-4.027 2.798-12.092 9.04-24.028 18.3-36.336 27.035-4.2 2.98-5.195 6.101-3.664 10.928 9.628-7.204 19.037-14.244 29.013-21.72m-7.725-12.723c6.247-4.683 12.276-9.701 18.817-13.928 4.245-2.743 5.093-5.957 3.872-10.767-1.334.869-2.57 1.58-3.703 2.427-12.236 9.15-24.314 18.52-36.762 27.372-4.092 2.91-4.82 6.064-3.664 10.915 7.14-5.319 14.014-10.44 21.44-16.019m5.8-215.185c-7.7 5.785-15.237 11.808-23.167 17.258-4.13 2.838-5.547 5.966-3.985 11.062 1.022-.717 1.806-1.235 2.557-1.798 12.626-9.454 25.247-18.914 37.87-28.372 4.875-3.653 4.895-3.71 3.286-10.485-5.39 4.037-10.674 7.996-16.562 12.335m-19.966 60.037c11.029-8.25 21.9-16.725 33.17-24.633 4.131-2.899 4.803-6.06 3.722-10.827-1.31.91-2.373 1.6-3.383 2.36-12.461 9.387-24.912 18.786-37.371 28.176-4.62 3.481-4.63 3.49-3.11 10.082 2.2-1.612 4.305-3.154 6.972-5.158m-1.387 240.591c3.207-2.376 6.256-5.016 9.664-7.059 3.88-2.326 4.723-5.341 3.407-9.754-1.837 1.282-3.472 2.368-5.05 3.533-12.046 8.889-23.963 17.958-36.187 26.594-3.81 2.69-5.132 5.425-3.46 10.005 10.469-7.74 20.747-15.337 31.626-23.319m16.274-233.727c6.121-4.584 12.09-9.395 18.421-13.668 3.719-2.51 4.918-5.378 3.554-9.895-1.178.82-2.25 1.52-3.272 2.284-12.651 9.454-25.188 19.066-38.008 28.285-3.678 2.646-3.826 5.414-2.774 9.528 7.452-5.577 14.482-10.838 22.08-16.534m-17.274 197.827c1.611-1.18 3.145-2.489 4.846-3.52 6.196-3.755 11.453-8.124 11.435-16.535-5.84 4.355-11.361 8.94-17.357 12.782-4.22 2.704-5.08 5.877-3.78 10.758 1.62-1.192 2.92-2.15 4.856-3.485m-28.963-337.787-3.056 9.256 1.55.605 23.322-17.618c-6.172-.706-11.237-.812-15.51 3.327-1.645 1.593-3.764 2.697-6.306 4.43m288.883 414.6 7.756-6.902-1.09-1.261-22.657 17.025.991 1.464c4.801-3.31 9.603-6.618 15-10.326m-282.223-60.23 8.367-6.228c-8.838.154-16 5.536-17.051 12.588 2.859-2.076 5.495-3.99 8.684-6.36z"/>
  <path fill="#FBFBFB" d="M284.512 509.447c.923-1.56 1.968-2.934 1.97-4.31.078-83.163.054-166.327.135-249.49.003-3.105-.899-4.433-4.003-4.943-3.59-.59-7.111-1.697-10.604-2.772-6.704-2.062-10.652-6.939-10.698-13.998-.14-21.665-.18-43.332.01-64.996.076-8.622 5.358-13.455 13.813-13.444 66.663.089 133.33-.184 199.987.456 29.324.281 56.483 8.669 79.43 27.85 20.689 17.296 32.367 40.119 39.43 65.674 5.95 21.528 7.803 43.576 7.924 65.763.226 41.664.697 83.342-.144 124.99-.605 29.934-2.568 59.893-14.546 88.125-18.29 43.108-50.013 68.69-96.809 74.66-7.074.903-14.276 1.1-21.419 1.108-64.33.082-128.662.049-192.993.047-10.238 0-14.701-4.47-14.727-14.968-.05-19.666.004-39.332-.047-58.998-.004-1.634-.48-3.267-.896-5.92.517-.765 1.614-2.999 3.274-4.676 2.032-2.055 4.303-4.17 6.888-5.315 4.381-1.942 9.09-3.145 14.025-4.843m92.209-65.947v62.003c26.721 0 52.693.038 78.665-.09 1.63-.008 3.46-1.036 4.846-2.064 10.823-8.037 21.556-16.196 32.33-24.3 1.34-1.008 2.762-1.907 4.718-3.25-.408 6.298-2.703 10.154-7.203 13.24-7.017 4.81-13.64 10.195-21.21 15.928 10.333.15 19.629-4.207 25.997-11.918 12.01-14.543 16.52-32.084 16.888-50.169.869-42.633.552-85.292.542-127.94-.002-7.31-.578-14.651-1.38-21.923-2.255-20.455-12.045-32.485-30.483-36.505-7.58-1.653-15.522-2.163-23.31-2.245-25.488-.27-50.982-.104-76.474-.096-1.13 0-2.26.103-3.32.154v13.15l14.276-2.525c0 1.404.066 1.646-.01 1.705-3.28 2.561-6.56 5.125-9.868 7.65-5.723 4.37-6.098 5.466-4.135 13.218 8.757-6.531 17.521-12.797 25.962-19.472 4.289-3.392 8.604-2.677 14.105-2.007-12.891 9.653-24.913 18.821-37.148 27.694-2.908 2.108-3.875 4.288-3.866 7.807.118 46.985.078 93.97.078 141.955z"/>
  <path fill="#EFEFEF" d="M254.1 647.092c-4.849 4.529-9.979 6.92-16.954 4.893 1.46-1.206 2.628-2.245 3.871-3.185 12.881-9.734 25.954-19.227 38.572-29.29 4.759-3.796 9.528-4.712 16.277-3.582-14.284 10.669-27.874 20.82-41.766 31.164zM391.53 628.553c3.876-2.907 7.671-5.363 11.02-8.326 4.522-4 9.451-5.94 16.801-3.35-1.13.504-2.404.817-3.37 1.541-14.228 10.662-28.253 21.608-42.742 31.9-3.133 2.225-7.903 2.146-11.92 3.128l-.818-1.795c10.25-7.624 20.5-15.248 31.029-23.098zM288.649 639.631c-4.418 3.292-8.82 6.066-12.632 9.497-4.19 3.77-8.753 3.901-14.82 2.969 3.038-2.26 5.361-3.987 7.682-5.717 12.125-9.038 24.406-17.878 36.294-27.22 4.47-3.514 8.967-4.302 15.303-3.292-10.986 8.195-21.268 15.865-31.827 23.763zM365.592 629.622c4.946-3.706 9.855-6.911 14.207-10.749 4.215-3.716 8.78-3.912 14.866-2.981-4.446 3.33-8.199 6.154-11.964 8.96-10.667 7.952-21.342 15.894-32.01 23.845-5.877 4.38-5.874 4.385-15.26 3.37 10.394-7.73 20.137-14.975 30.161-22.445z"/>
  <path fill="#EEE" d="M339.087 615.434h5.862c-1.74 1.584-2.57 2.468-3.524 3.19-13.11 9.912-26.399 19.6-39.275 29.807-4.566 3.619-9.108 4.922-15.225 3.704 1.095-1.015 1.888-1.886 2.81-2.585 14.031-10.621 28.03-21.287 42.184-31.744 1.835-1.356 4.484-1.609 7.168-2.372z"/>
  <path fill="#EFEFEF" d="M320.126 652.514c-3.001.036-5.604.036-9.294.036 1.826-1.596 2.817-2.575 3.92-3.408 13.01-9.832 26.196-19.442 38.977-29.564 4.566-3.616 9.119-4.934 15.903-3.581-16.832 12.504-32.97 24.493-49.506 36.517zM411.934 639.912c-4.405 3.301-8.8 6.098-12.55 9.587-4.116 3.83-8.615 3.051-14.698 2.906 7.993-6.036 14.845-11.213 21.7-16.387 7.556-5.703 15.11-11.41 22.673-17.105 5.332-4.016 6.38-4.23 14.317-2.77-10.624 8.039-20.886 15.804-31.442 23.769zM236.1 642.09c-3.479 2.598-6.88 4.765-9.788 7.463-3.938 3.65-8.284 3.425-13.9 2.342 8.77-6.622 16.905-12.77 25.047-18.912 6.366-4.802 12.968-9.327 19.031-14.486 4.209-3.58 8.565-3.332 14.305-2.628-11.961 9.05-23.179 17.537-34.694 26.22z"/>
  <path fill="#F2F2F2" d="M226.52 298.721c-2.747-.53-5.132-1.16-8.244-1.983 7.976-5.904 15.408-11.41 22.844-16.91 7.07-5.23 14.345-10.207 21.136-15.775 3.982-3.266 7.49-3.365 11.85-.598-15.846 11.8-31.535 23.483-47.586 35.266zM448.776 640.795c10.613-7.787 20.93-15.373 31.253-22.95 7.574-5.558 7.578-5.552 18.495-6.864-1.579 1.324-2.604 2.264-3.708 3.1a31018.071 31018.071 0 0 1-40.606 30.695c-6.475 4.886-8.113 5.394-18.131 5.452 4.656-3.464 8.53-6.346 12.697-9.433z"/>
  <path fill="#F3F3F3" d="M237.946 234.929a23846.303 23846.303 0 0 0-32.552 24.552c-.722-4.95-.97-8.492 3.735-11.733 12.575-8.663 24.673-18.019 36.97-27.086 1.292-.952 2.648-1.817 4.273-2.926 1.223 4.795.606 8.245-3.747 10.748-3 1.725-5.602 4.142-8.679 6.445z"/>
  <path fill="#F0F0F0" d="M436.107 640.094c-3.998 3.018-7.97 5.554-11.334 8.732-4.213 3.98-8.914 4.294-15.08 3.26 9.364-6.958 18.083-13.45 26.816-19.922 6.275-4.65 12.571-9.271 18.858-13.906 5.107-3.766 5.316-3.82 13.391-3.037a24488.245 24488.245 0 0 1-32.65 24.873z"/>
  <path fill="#F2F2F2" d="M245.974 608.045c1.477-1.045 2.66-1.9 4.151-2.978l3.2 5.742-46.527 34.614c-2.622-4.19-1.997-6.803 1.787-9.53 12.513-9.015 24.751-18.41 37.389-27.848z"/>
  <path fill="#F3F3F3" d="M255.783 258.387c-15.56 11.674-30.89 23.041-46.177 34.377-4.867-3.95-4.871-4.57-.212-7.991 14.32-10.515 28.643-21.03 43.478-31.92 1.104 1.838 2.123 3.532 2.91 5.534z"/>
  <path fill="#F2F2F2" d="M206.864 276.146c-2.746-1.402-2.602-6.052.083-8.086 6.354-4.813 12.785-9.523 19.185-14.275l24.068-17.87c1.233 7.375 1.221 7.359-4.142 11.316-12.962 9.563-25.911 19.143-39.194 28.915z"/>
  <path fill="#F3F3F3" d="M272.253 430.106a48463.113 48463.113 0 0 0-40.849 31.231c-1.31-5.247-.38-8.601 4.03-11.733 12.6-8.953 24.781-18.497 37.13-27.804.886-.668 1.797-1.302 3.145-2.276.414 4.39 1.193 8.149-3.456 10.582z"/>
  <path fill="#F2F2F2" d="M233.4 385.625c-.987.408-1.676.58-2.365.751.522-2.757.057-6.75 1.72-8.077 13.87-11.071 28.13-21.651 42.76-32.75.788 4.735 1.06 8.116-3.433 11.285-13.028 9.188-25.621 18.992-38.682 28.79z"/>
  <path fill="#F5F5F5" d="M275.87 439.294c.858 4.75-.999 7.517-4.612 10.18-13.335 9.83-26.38 20.053-39.711 30.263-1.683-5.263-.312-8.66 4.086-11.788 12.038-8.563 23.72-17.623 35.585-26.432 1.391-1.033 3.038-1.722 4.653-2.223z"/>
  <path fill="#F2F2F2" d="M270.708 367.72a969.062 969.062 0 0 1 4.785-3.595c1.403 5.343.157 8.74-4.335 11.912-12.597 8.895-24.78 18.376-37.13 27.62-.753.564-1.542 1.079-2.579 1.8-1.458-4.864-.22-7.809 3.732-10.68 11.942-8.678 23.524-17.851 35.527-27.057zM205.684 583.244a86750.241 86750.241 0 0 1 44.565-32.891c1.52 5.159.04 8.055-3.888 10.856-13.647 9.73-26.99 19.888-41.387 30.581.16-3.332.278-5.817.71-8.546zM237.794 595.816c4.264-3.126 8.237-6.042 12.422-9.113 1.78 5.224.005 8.212-4.023 11.064-12.211 8.647-24.134 17.7-36.18 26.582-1.414 1.043-2.895 1.997-4.612 3.175-.976-4.623-.413-7.684 3.621-10.455 9.724-6.68 19.016-13.988 28.772-21.253z"/>
  <path fill="#F4F4F4" d="M222.491 219.503c5.758-4.275 11.42-8.104 16.654-12.448 3.552-2.948 7.207-3.711 11.49-2.715-.634 3.481-25.299 23.157-45.197 36.023-.883-4.477-1.241-8.123 3.503-10.937 4.69-2.783 8.87-6.428 13.55-9.923z"/>
  <path fill="#F3F3F3" d="M237.894 437.873c-2.252 1.698-4.213 3.193-6.256 4.751-1.49-6.86-1.48-6.847 3.665-10.784 13.312-10.187 26.615-20.386 40.268-30.845 1.01 5.03.27 8.265-4 11.304-11.382 8.101-22.29 16.869-33.677 25.574zM258.518 395.535c5.765-4.399 11.253-8.568 16.957-12.9 1.301 4.984.258 8.106-3.726 11.025-13.498 9.888-26.67 20.22-40.252 30.6-1.308-4.65-.806-7.847 3.34-10.73 8.032-5.59 15.628-11.808 23.68-17.995zM260.786 467.806c5.025-3.75 9.763-7.29 14.671-10.958 1.411 5.102.155 8.249-3.983 11.203-13.46 9.61-26.579 19.7-40.036 29.76-1.568-5.273.028-8.46 4.3-11.385 8.48-5.806 16.531-12.236 25.048-18.62zM264.397 307.385c-11.126 8.342-21.973 16.458-32.99 24.701-1.333-5.067-.218-8.23 3.99-11.22 13.49-9.585 26.598-19.708 40.015-29.744 1.664 5.296.184 8.81-4.32 11.328-2.297 1.286-4.287 3.122-6.695 4.935zM260.259 513.25c-9.693 7.259-19.102 14.3-28.73 21.503-1.53-4.827-.536-7.948 3.664-10.928 12.308-8.735 24.244-17.994 36.336-27.035 1.274-.953 2.613-1.819 4.027-2.798 1.36 5.038.18 8.478-4.197 11.086-3.827 2.28-7.228 5.275-11.1 8.172zM252.541 500.54c-7.15 5.35-14.024 10.47-21.164 15.789-1.155-4.85-.428-8.005 3.664-10.915 12.448-8.851 24.526-18.222 36.762-27.372 1.134-.847 2.37-1.558 3.703-2.427 1.221 4.81.373 8.024-3.872 10.767-6.541 4.227-12.57 9.245-19.093 14.158zM258.918 284.935c5.586-4.149 10.87-8.108 16.26-12.145 1.61 6.774 1.589 6.832-3.286 10.485-12.623 9.458-25.244 18.918-37.87 28.372-.75.563-1.535 1.081-2.557 1.798-1.562-5.096-.145-8.224 3.985-11.062 7.93-5.45 15.467-11.473 23.468-17.448z"/>
  <path fill="#F1F1F1" d="M238.37 345.393a1136.158 1136.158 0 0 1-6.692 4.927c-1.52-6.592-1.51-6.601 3.11-10.082 12.459-9.39 24.91-18.79 37.371-28.175 1.01-.76 2.073-1.45 3.383-2.361 1.08 4.767.409 7.928-3.723 10.827-11.27 7.908-22.14 16.383-33.45 24.864z"/>
  <path fill="#F2F2F2" d="M236.963 585.946c-10.579 7.79-20.857 15.387-31.327 23.126-1.671-4.58-.348-7.315 3.46-10.005 12.225-8.636 24.142-17.705 36.188-26.594 1.578-1.165 3.213-2.251 5.05-3.533 1.316 4.413.473 7.428-3.407 9.754-3.408 2.043-6.457 4.683-9.964 7.252zM253.254 352.244c-7.314 5.478-14.344 10.74-21.796 16.316-1.052-4.114-.904-6.882 2.774-9.528 12.82-9.22 25.357-18.83 38.008-28.285 1.023-.764 2.094-1.464 3.272-2.284 1.364 4.517.165 7.385-3.554 9.895-6.33 4.273-12.3 9.084-18.704 13.886z"/>
  <path fill="#F3F3F3" d="M235.947 550.042a291.901 291.901 0 0 0-4.54 3.296c-1.3-4.88-.438-8.054 3.781-10.758 5.996-3.842 11.516-8.427 17.357-12.782.018 8.411-5.239 12.78-11.435 16.535-1.701 1.031-3.235 2.34-5.163 3.71zM207.62 211.863c2.223-1.53 4.342-2.634 5.987-4.227 4.273-4.139 9.338-4.033 15.51-3.327l-23.321 17.618-1.55-.605c1.018-3.085 2.036-6.17 3.375-9.46z"/>
  <path fill="#E7E7E7" d="M495.886 626.865c-5.1 3.509-9.9 6.818-14.702 10.127l-.99-1.464 22.655-17.025 1.091 1.261a807.838 807.838 0 0 1-8.054 7.101zM213.685 566.665c-2.913 2.142-5.549 4.055-8.408 6.13 1.051-7.05 8.213-12.433 17.05-12.587a2063.078 2063.078 0 0 0-8.642 6.457zM504.318 617.494c.461.146.923.292.904.374-.621-.167-.763-.27-.904-.374zM504.942 617.976c-.113.507-.428.845-.742 1.182-.155-.4-.31-.802-.174-1.433.433-.127.575-.024.916.25z"/>
  <path fill="#131313" d="M376.72 443c.001-47.485.04-94.47-.077-141.455-.01-3.52.958-5.699 3.866-7.807 12.235-8.873 24.257-18.041 37.148-27.694-5.501-.67-9.816-1.385-14.105 2.007-8.44 6.675-17.205 12.941-25.962 19.472-1.963-7.752-1.588-8.848 4.135-13.218 3.308-2.525 6.588-5.089 9.869-7.65.075-.06.01-.3.01-1.705l-14.277 2.525v-13.15c1.06-.051 2.19-.154 3.32-.154 25.492-.008 50.986-.173 76.475.096 7.787.082 15.73.592 23.31 2.245 18.437 4.02 28.227 16.05 30.482 36.505.802 7.272 1.378 14.613 1.38 21.922.01 42.649.327 85.308-.542 127.941-.369 18.085-4.879 35.626-16.888 50.169-6.368 7.71-15.664 12.068-25.997 11.918 7.57-5.733 14.193-11.119 21.21-15.929 4.5-3.085 6.795-6.94 7.203-13.239-1.956 1.343-3.377 2.242-4.717 3.25-10.775 8.104-21.508 16.263-32.331 24.3-1.385 1.028-3.216 2.056-4.846 2.064-25.972.128-51.944.09-78.665.09V443m38.447-146.328-7.386 5.59c8.93 1.48 8.93 1.48 15.016-3.08 1.593-1.193 3.196-2.374 4.784-3.574 12.382-9.357 24.762-18.718 37.42-28.286-5.26-2.046-9.237-1.738-13.616 1.785-11.63 9.355-23.744 18.11-36.218 27.565m24.352-28.608 2.68-2.346c-5.72-.529-10.113-.443-14.534 3.031-13.577 10.668-27.544 20.838-41.343 31.223-.94.707-1.748 1.59-2.736 2.5 6.688 1.537 11.512-.776 16.386-4.605 12.793-10.051 25.972-19.612 39.547-29.803m11.97 27.91 30.887-23.514c-5.467-3.61-5.474-3.618-9.882-.304a9313.07 9313.07 0 0 0-16.706 12.596c-8.982 6.783-17.96 13.57-27.011 20.41 4.083 3.25 7.44 3.14 11.097-.257 3.39-3.148 7.34-5.693 11.616-8.93m1.981 9.01-10.79 7.959 4 5.227 46.82-34.84-3.527-5.107a59780.456 59780.456 0 0 0-36.503 26.761m37.585 164.549c1.746-1.278 3.38-2.76 5.259-3.793 4.47-2.458 5.1-6.197 4.208-11.232-13.673 10.012-26.787 19.924-40.266 29.312-4.46 3.106-5.742 6.635-4.949 12.07a30571.45 30571.45 0 0 0 35.748-26.357m3.58-94.44c4.307-3.07 9.76-5.526 6.584-12.836-13.562 9.978-26.943 20.084-40.64 29.74-4.149 2.925-5.386 6.067-3.974 11.17a53616.92 53616.92 0 0 0 38.03-28.075m-23.063 63.985c-3.618 2.661-7.06 5.62-10.9 7.906-4.365 2.598-5.596 5.985-4.08 11.048 1.323-.92 2.528-1.716 3.69-2.573 12.322-9.076 24.495-18.364 37.034-27.13 4.18-2.922 5.58-6.053 4.171-11.28-9.884 7.291-19.603 14.46-29.915 22.029m5.96-107.056c6.11-4.581 12.029-9.456 18.4-13.639 4.18-2.744 5.478-5.817 3.566-10.695-1.33.949-2.662 1.856-3.948 2.825-12.336 9.288-24.546 18.75-37.066 27.784-3.88 2.801-5.272 5.555-3.021 10.229 7.206-5.387 14.352-10.73 22.07-16.504m5.564 14.562c4.801-3.578 9.408-7.464 14.462-10.64 4.353-2.734 5.28-6.097 3.82-11.074-14.023 10.568-27.723 21.074-41.652 31.269-3.794 2.777-4.584 5.598-2.543 9.864 8.587-6.432 16.966-12.708 25.913-19.419m4.274 15.277c3.325-2.494 6.459-5.316 10.024-7.397 4.248-2.48 5.503-5.723 4.072-10.677-1.436.971-2.782 1.817-4.059 2.757-12.314 9.072-24.475 18.361-37 27.13-4.08 2.855-5.163 5.877-3.758 10.945a9549.967 9549.967 0 0 1 30.721-22.758m-3.422 49.616c-7.893 5.824-15.618 11.897-23.75 17.366-4.158 2.796-4.86 5.932-3.498 10.763 13.802-10.264 27.12-20.438 40.765-30.15 3.978-2.83 5.393-5.766 3.963-10.832-5.78 4.237-11.35 8.322-17.48 12.853m-.008 36.989c-7.889 5.824-15.61 11.896-23.736 17.368-4.15 2.795-4.862 5.938-3.513 10.78 13.891-10.402 27.323-20.682 41.032-30.579 3.757-2.712 5.152-5.541 3.693-10.398a7804.656 7804.656 0 0 0-17.476 12.829m-11.891-130.941c7.425-5.59 14.848-11.185 22.278-16.77 4.384-3.297 4.406-3.369 1.786-8.923l-45.996 34.713 2.23 5.842c6.69-5.039 12.917-9.728 19.702-14.862m27.15 71.938c4.008-1.946 2.617-5.246 2.588-9.144-14.446 10.648-28.094 20.899-41.981 30.814-3.677 2.625-4.558 5.39-3.088 9.701a19074.714 19074.714 0 0 0 42.48-31.371m-1.736 86.405.093-.304s-.253.095-.093.304z"/>
  <path fill="#F2F2F2" d="M415.444 296.442c12.198-9.225 24.312-17.98 35.942-27.335 4.38-3.523 8.355-3.83 13.616-1.785-12.658 9.568-25.038 18.929-37.42 28.286-1.588 1.2-3.19 2.381-4.784 3.575-6.086 4.559-6.085 4.56-15.016 3.08 2.735-2.07 5.06-3.83 7.662-5.821z"/>
  <path fill="#EFEFEF" d="M439.245 268.281c-13.3 9.974-26.479 19.535-39.272 29.586-4.874 3.829-9.698 6.142-16.386 4.605.988-.91 1.796-1.793 2.736-2.5 13.8-10.385 27.766-20.555 41.343-31.223 4.421-3.474 8.813-3.56 14.534-3.031a258.846 258.846 0 0 1-2.955 2.563z"/>
  <path fill="#F3F3F3" d="M451.205 296.188c-3.99 3.024-7.94 5.569-11.33 8.717-3.657 3.397-7.014 3.506-11.097.257 9.05-6.84 18.029-13.627 27.01-20.41a9313.07 9313.07 0 0 1 16.707-12.596c4.408-3.314 4.415-3.306 9.882.304-10.384 7.905-20.635 15.71-31.172 23.728zM453.757 304.77c12.082-8.86 23.88-17.505 36.218-26.546l3.527 5.108-46.82 34.839-4-5.227c3.667-2.705 7.229-5.332 11.075-8.174z"/>
  <path fill="#F2F2F2" d="M490.776 469.754c-11.902 8.78-23.521 17.338-35.467 26.137-.793-5.435.49-8.964 4.949-12.07 13.479-9.388 26.593-19.3 40.266-29.312.891 5.035.263 8.774-4.208 11.232-1.88 1.033-3.513 2.515-5.54 4.013zM494.35 375.313c-12.692 9.373-25.098 18.526-37.743 27.855-1.412-5.103-.175-8.245 3.973-11.17 13.698-9.656 27.08-19.762 40.641-29.74 3.176 7.31-2.277 9.766-6.87 13.055zM471.87 438.878a30518.979 30518.979 0 0 0 29.62-21.828c1.408 5.226.008 8.357-4.172 11.28-12.539 8.765-24.712 18.053-37.033 27.13-1.163.856-2.368 1.653-3.691 2.572-1.516-5.063-.285-8.45 4.08-11.048 3.84-2.286 7.282-5.245 11.196-8.106z"/>
  <path fill="#F1F1F1" d="m477.25 332.237-21.785 16.289c-2.25-4.674-.86-7.428 3.021-10.229 12.52-9.034 24.73-18.496 37.066-27.784 1.286-.969 2.618-1.876 3.948-2.825 1.912 4.878.614 7.95-3.566 10.695-6.371 4.183-12.29 9.058-18.685 13.854z"/>
  <path fill="#F0F0F0" d="M482.816 346.801c-8.664 6.494-17.043 12.77-25.63 19.202-2.04-4.266-1.251-7.087 2.543-9.864 13.929-10.195 27.63-20.701 41.652-31.269 1.46 4.977.533 8.34-3.82 11.075-5.054 3.175-9.66 7.061-14.745 10.856z"/>
  <path fill="#F2F2F2" d="M487.073 362.053c-10.25 7.582-20.2 14.974-30.42 22.566-1.406-5.068-.324-8.09 3.756-10.946 12.526-8.768 24.687-18.057 37.001-27.129 1.277-.94 2.623-1.786 4.06-2.757 1.43 4.954.175 8.197-4.073 10.677-3.565 2.081-6.699 4.903-10.324 7.589zM484.23 411.254c5.85-4.308 11.421-8.393 17.2-12.63 1.431 5.066.016 8.002-3.962 10.832-13.646 9.712-26.963 19.886-40.765 30.15-1.362-4.83-.66-7.967 3.499-10.763 8.131-5.469 15.856-11.542 24.028-17.59z"/>
  <path fill="#F0F0F0" d="M484.226 448.246c5.854-4.301 11.426-8.383 17.193-12.609 1.459 4.857.064 7.686-3.693 10.398-13.709 9.897-27.14 20.177-41.032 30.579-1.349-4.842-.637-7.985 3.513-10.78 8.126-5.472 15.847-11.544 24.019-17.588z"/>
  <path fill="#F2F2F2" d="M471.773 317.747c-6.506 4.912-12.733 9.601-19.424 14.64l-2.229-5.842 45.996-34.713c2.62 5.554 2.598 5.626-1.786 8.923-7.43 5.585-14.853 11.18-22.557 16.992zM498.914 389.705a37334.113 37334.113 0 0 1-42.193 31.13c-1.47-4.312-.589-7.077 3.088-9.702 13.887-9.915 27.535-20.166 41.98-30.814.03 3.898 1.421 7.198-2.875 9.386z"/>
  <path fill="#FBFBFB" d="M497.385 475.763c-.08-.104.173-.199.173-.199s-.093.304-.173.2z"/>
</svg>
