<svg xmlns="http://www.w3.org/2000/svg" xml:space="preserve" viewBox="257.99 248.48 530.51 533.8">
    <circle cx="523" cy="515" r="200" fill="white"/>
    <path d="M383.73 342.698c32.638-25.995 69.059-42.793 110.217-47.921 86.028-10.72 154.39 20.985 207.172 88.316 23.989 30.601 37.678 65.821 42.142 104.287 7.476 64.417-10.187 121.508-51.875 171.2-35.685 42.538-80.942 68.58-135.503 78.246-24.54 4.347-48.983 2.773-73.397-2.404-36.374-7.712-69.185-22.836-98.107-46.031-28.468-22.83-49.367-51.712-64.38-84.8-13.335-29.386-20.015-60.462-18.992-92.665 2.109-66.441 28.336-121.702 79.07-165.034 1.14-.974 2.26-1.97 3.652-3.194m3.68 201.802c.158 28.643.316 57.286.48 85.93.006.998.07 1.996.112 2.994.106 2.438 1.41 3.542 3.822 3.625 24.634.855 49.38 2.254 73.787-1.704 55.308-8.97 96.584-53.53 100.76-110.956 2.815-38.71-10.547-72.081-39.81-98.185-20.48-18.267-44.66-28.705-72.087-31.07-20.608-1.777-41.282-.388-61.92-.842-3.216-.071-4.601 1.475-4.833 4.375a87.97 87.97 0 0 0-.287 7.477c.129 23.48.41 46.96.411 70.44.001 22.305-.279 44.61-.436 67.916M611.183 400.85c-.003 19.824-.012 39.647-.009 59.47.008 56.638.018 113.276.036 169.914.002 7.347.034 7.377 7.162 7.403 6.663.025 13.327.015 19.99-.025 7.406-.045 8.228-.859 8.255-8.426.047-13.16.039-26.32.039-39.48 0-62.302.002-124.604-.013-186.905-.001-7.673-.728-8.42-8.148-8.463-7.162-.041-14.326.047-21.488 0-3.845-.026-6.064 1.473-5.824 6.512m-56.085 230.29c2.226 8.075 9.028 11.26 15.473 7.246 4.307-2.683 6.301-8.116 4.606-12.549-1.646-4.306-6.582-7.315-11.11-6.773-5.212.625-8.681 4.932-8.969 12.076z"/>
    <path d="M435.032 430.92c27.92-.601 52.318 7.122 71.098 27.821 21.863 24.099 28.737 52.322 18.365 83.397-10.801 32.36-33.885 51.27-67.501 57.287-9.596 1.718-19.278.478-28.905 1.045-2.315.136-3.381-.972-3.365-3.252.011-1.665-.037-3.33-.037-4.995-.005-50.457-.034-100.915.014-151.372.01-10.545-1.689-9.931 10.33-9.932z"/>
</svg>